<svg width="48" height="48" viewBox="0 0 48 48" fill="none" xmlns="http://www.w3.org/2000/svg">
<path opacity="0.2" d="M24 24C24 26.3869 24.9482 28.6761 26.636 30.364C28.3239 32.0518 30.6131 33 33 33C34.9256 33.0769 36.3563 32.5781 37.8525 31.6181C37.9657 31.5474 38.0958 31.5081 38.2293 31.5044C38.3628 31.5007 38.4948 31.5327 38.6118 31.5971C38.7287 31.6615 38.8264 31.756 38.8947 31.8708C38.9629 31.9856 38.9993 32.1165 39 32.25V39C39 39.3978 38.842 39.7794 38.5607 40.0607C38.2794 40.342 37.8978 40.5 37.5 40.5H10.5C10.1022 40.5 9.72064 40.342 9.43934 40.0607C9.15804 39.7794 9 39.3978 9 39V9C9 8.60218 9.15804 8.22064 9.43934 7.93934C9.72064 7.65804 10.1022 7.5 10.5 7.5H37.5C37.8978 7.5 38.2794 7.65804 38.5607 7.93934C38.842 8.22064 39 8.60218 39 9V15.75C38.9996 15.8842 38.9631 16.0159 38.8944 16.1312C38.8258 16.2466 38.7274 16.3414 38.6096 16.4057C38.4918 16.4701 38.3589 16.5017 38.2247 16.4971C38.0906 16.4926 37.9601 16.4522 37.8469 16.38C36.4812 15.5244 34.9117 15.0493 33.3008 15.0037C31.6898 14.9581 30.096 15.3437 28.6841 16.1207C27.2722 16.8977 26.0935 18.0378 25.27 19.423C24.4465 20.8083 24.008 22.3885 24 24Z" fill="#2F80ED"/>
<path d="M33 16.5C34.4273 16.4872 35.8284 16.8842 37.0369 17.6437C37.3768 17.8614 37.769 17.9835 38.1723 17.9975C38.5757 18.0114 38.9754 17.9166 39.3295 17.7229C39.6836 17.5293 39.9791 17.2439 40.1851 16.8968C40.391 16.5497 40.4998 16.1536 40.5 15.75V9C40.5 8.20435 40.1839 7.44129 39.6213 6.87868C39.0587 6.31607 38.2956 6 37.5 6H10.5C9.70435 6 8.94129 6.31607 8.37868 6.87868C7.81607 7.44129 7.5 8.20435 7.5 9V39C7.5 39.7957 7.81607 40.5587 8.37868 41.1213C8.94129 41.6839 9.70435 42 10.5 42H37.5C38.2956 42 39.0587 41.6839 39.6213 41.1213C40.1839 40.5587 40.5 39.7957 40.5 39V32.25C40.4995 31.8471 40.3908 31.4517 40.1853 31.1052C39.9798 30.7587 39.685 30.4737 39.3317 30.28C38.9784 30.0863 38.5796 29.991 38.1769 30.0041C37.7742 30.0172 37.3825 30.1382 37.0425 30.3544C35.6831 31.2262 34.5281 31.5562 33.06 31.5H33C31.0109 31.5 29.1032 30.7098 27.6967 29.3033C26.2902 27.8968 25.5 25.9891 25.5 24C25.5 22.0109 26.2902 20.1032 27.6967 18.6967C29.1032 17.2902 31.0109 16.5 33 16.5ZM22.5 24C22.5034 26.7785 23.6067 29.4427 25.5686 31.4102C27.5305 33.3777 30.1915 34.4886 32.97 34.5C34.5374 34.5777 36.0982 34.2476 37.5 33.5419V39H10.5V9H37.5V14.4806C35.8957 13.7361 34.1301 13.4066 32.3653 13.5223C30.6005 13.638 28.893 14.1953 27.3997 15.143C25.9065 16.0907 24.6752 17.3984 23.8191 18.9459C22.9629 20.4935 22.5094 22.2314 22.5 24Z" fill="#2F80ED"/>
</svg>
